<mxfile host="app.diagrams.net" modified="2024-04-16T15:12:18.069Z" agent="Mozilla/5.0 (Windows NT 10.0; Win64; x64) AppleWebKit/537.36 (KHTML, like Gecko) Chrome/123.0.0.0 Safari/537.36 Edg/123.0.0.0" etag="bCDgvXG3mQ6F9Zm7SJlC" version="24.2.5" type="github">
  <diagram name="Page-1" id="-d1IBnH3PMXN5NCjn0lf">
    <mxGraphModel dx="1005" dy="561" grid="1" gridSize="10" guides="1" tooltips="1" connect="1" arrows="1" fold="1" page="1" pageScale="1" pageWidth="850" pageHeight="1100" math="0" shadow="0">
      <root>
        <mxCell id="0" />
        <mxCell id="1" parent="0" />
        <mxCell id="zJ8sN_DCTzBOJNkLeVTx-7" value="" style="swimlane;fontStyle=0;childLayout=stackLayout;horizontal=1;startSize=20;fillColor=#ffffff;horizontalStack=0;resizeParent=1;resizeParentMax=0;resizeLast=0;collapsible=0;marginBottom=0;swimlaneFillColor=#ffffff;" vertex="1" parent="1">
          <mxGeometry x="390" y="210" width="100" height="120" as="geometry" />
        </mxCell>
        <mxCell id="zJ8sN_DCTzBOJNkLeVTx-10" value="" style="endArrow=none;html=1;rounded=0;" edge="1" parent="zJ8sN_DCTzBOJNkLeVTx-7">
          <mxGeometry width="50" height="50" relative="1" as="geometry">
            <mxPoint y="40" as="sourcePoint" />
            <mxPoint x="100" y="40" as="targetPoint" />
          </mxGeometry>
        </mxCell>
        <mxCell id="zJ8sN_DCTzBOJNkLeVTx-11" value="" style="endArrow=none;html=1;rounded=0;entryX=0.164;entryY=0.005;entryDx=0;entryDy=0;entryPerimeter=0;" edge="1" parent="zJ8sN_DCTzBOJNkLeVTx-7">
          <mxGeometry width="50" height="50" relative="1" as="geometry">
            <mxPoint x="22" y="120" as="sourcePoint" />
            <mxPoint x="22.399999999999977" y="0.5500000000000114" as="targetPoint" />
          </mxGeometry>
        </mxCell>
        <mxCell id="zJ8sN_DCTzBOJNkLeVTx-9" value="Tenant" style="text;html=1;align=center;verticalAlign=middle;whiteSpace=wrap;rounded=0;" vertex="1" parent="1">
          <mxGeometry x="415" y="205" width="60" height="30" as="geometry" />
        </mxCell>
        <mxCell id="zJ8sN_DCTzBOJNkLeVTx-12" value="PK" style="text;html=1;align=center;verticalAlign=middle;whiteSpace=wrap;rounded=0;" vertex="1" parent="1">
          <mxGeometry x="372" y="224" width="60" height="30" as="geometry" />
        </mxCell>
        <mxCell id="zJ8sN_DCTzBOJNkLeVTx-13" value="TenantID" style="text;html=1;align=center;verticalAlign=middle;whiteSpace=wrap;rounded=0;" vertex="1" parent="1">
          <mxGeometry x="418" y="225" width="60" height="30" as="geometry" />
        </mxCell>
        <mxCell id="zJ8sN_DCTzBOJNkLeVTx-14" value="Name" style="text;html=1;align=center;verticalAlign=middle;whiteSpace=wrap;rounded=0;" vertex="1" parent="1">
          <mxGeometry x="419" y="250" width="60" height="30" as="geometry" />
        </mxCell>
        <mxCell id="zJ8sN_DCTzBOJNkLeVTx-15" value="ContactNum" style="text;html=1;align=center;verticalAlign=middle;whiteSpace=wrap;rounded=0;" vertex="1" parent="1">
          <mxGeometry x="419" y="271" width="60" height="30" as="geometry" />
        </mxCell>
        <mxCell id="zJ8sN_DCTzBOJNkLeVTx-16" value="Birthday" style="text;html=1;align=center;verticalAlign=middle;whiteSpace=wrap;rounded=0;" vertex="1" parent="1">
          <mxGeometry x="420" y="291" width="60" height="30" as="geometry" />
        </mxCell>
        <mxCell id="zJ8sN_DCTzBOJNkLeVTx-17" value="" style="swimlane;fontStyle=0;childLayout=stackLayout;horizontal=1;startSize=20;fillColor=#ffffff;horizontalStack=0;resizeParent=1;resizeParentMax=0;resizeLast=0;collapsible=0;marginBottom=0;swimlaneFillColor=#ffffff;" vertex="1" parent="1">
          <mxGeometry x="628" y="228.5" width="100" height="120" as="geometry" />
        </mxCell>
        <mxCell id="zJ8sN_DCTzBOJNkLeVTx-18" value="" style="endArrow=none;html=1;rounded=0;" edge="1" parent="zJ8sN_DCTzBOJNkLeVTx-17">
          <mxGeometry width="50" height="50" relative="1" as="geometry">
            <mxPoint y="40" as="sourcePoint" />
            <mxPoint x="100" y="40" as="targetPoint" />
          </mxGeometry>
        </mxCell>
        <mxCell id="zJ8sN_DCTzBOJNkLeVTx-19" value="" style="endArrow=none;html=1;rounded=0;entryX=0.164;entryY=0.005;entryDx=0;entryDy=0;entryPerimeter=0;" edge="1" parent="zJ8sN_DCTzBOJNkLeVTx-17">
          <mxGeometry width="50" height="50" relative="1" as="geometry">
            <mxPoint x="22" y="120" as="sourcePoint" />
            <mxPoint x="22.399999999999977" y="0.5500000000000114" as="targetPoint" />
          </mxGeometry>
        </mxCell>
        <mxCell id="zJ8sN_DCTzBOJNkLeVTx-20" value="Room_Details" style="text;html=1;align=center;verticalAlign=middle;whiteSpace=wrap;rounded=0;" vertex="1" parent="1">
          <mxGeometry x="660" y="223.5" width="60" height="30" as="geometry" />
        </mxCell>
        <mxCell id="zJ8sN_DCTzBOJNkLeVTx-21" value="PK" style="text;html=1;align=center;verticalAlign=middle;whiteSpace=wrap;rounded=0;" vertex="1" parent="1">
          <mxGeometry x="610" y="242.5" width="60" height="30" as="geometry" />
        </mxCell>
        <mxCell id="zJ8sN_DCTzBOJNkLeVTx-22" value="RoomID" style="text;html=1;align=center;verticalAlign=middle;whiteSpace=wrap;rounded=0;" vertex="1" parent="1">
          <mxGeometry x="654" y="243.5" width="60" height="30" as="geometry" />
        </mxCell>
        <mxCell id="zJ8sN_DCTzBOJNkLeVTx-23" value="RoomType" style="text;html=1;align=center;verticalAlign=middle;whiteSpace=wrap;rounded=0;" vertex="1" parent="1">
          <mxGeometry x="657" y="268.5" width="60" height="30" as="geometry" />
        </mxCell>
        <mxCell id="zJ8sN_DCTzBOJNkLeVTx-26" value="" style="swimlane;fontStyle=0;childLayout=stackLayout;horizontal=1;startSize=20;fillColor=#ffffff;horizontalStack=0;resizeParent=1;resizeParentMax=0;resizeLast=0;collapsible=0;marginBottom=0;swimlaneFillColor=#ffffff;" vertex="1" parent="1">
          <mxGeometry x="493" y="385" width="100" height="120" as="geometry" />
        </mxCell>
        <mxCell id="zJ8sN_DCTzBOJNkLeVTx-27" value="" style="endArrow=none;html=1;rounded=0;" edge="1" parent="zJ8sN_DCTzBOJNkLeVTx-26">
          <mxGeometry width="50" height="50" relative="1" as="geometry">
            <mxPoint y="40" as="sourcePoint" />
            <mxPoint x="100" y="40" as="targetPoint" />
          </mxGeometry>
        </mxCell>
        <mxCell id="zJ8sN_DCTzBOJNkLeVTx-28" value="" style="endArrow=none;html=1;rounded=0;entryX=0.164;entryY=0.005;entryDx=0;entryDy=0;entryPerimeter=0;" edge="1" parent="zJ8sN_DCTzBOJNkLeVTx-26">
          <mxGeometry width="50" height="50" relative="1" as="geometry">
            <mxPoint x="22" y="120" as="sourcePoint" />
            <mxPoint x="22.399999999999977" y="0.5500000000000114" as="targetPoint" />
          </mxGeometry>
        </mxCell>
        <mxCell id="zJ8sN_DCTzBOJNkLeVTx-29" value="Room" style="text;html=1;align=center;verticalAlign=middle;whiteSpace=wrap;rounded=0;" vertex="1" parent="1">
          <mxGeometry x="518" y="380" width="60" height="30" as="geometry" />
        </mxCell>
        <mxCell id="zJ8sN_DCTzBOJNkLeVTx-30" value="PK" style="text;html=1;align=center;verticalAlign=middle;whiteSpace=wrap;rounded=0;" vertex="1" parent="1">
          <mxGeometry x="475" y="399" width="60" height="30" as="geometry" />
        </mxCell>
        <mxCell id="zJ8sN_DCTzBOJNkLeVTx-31" value="RoomID" style="text;html=1;align=center;verticalAlign=middle;whiteSpace=wrap;rounded=0;" vertex="1" parent="1">
          <mxGeometry x="519" y="400" width="60" height="30" as="geometry" />
        </mxCell>
        <mxCell id="zJ8sN_DCTzBOJNkLeVTx-32" value="RoomName" style="text;html=1;align=center;verticalAlign=middle;whiteSpace=wrap;rounded=0;" vertex="1" parent="1">
          <mxGeometry x="522" y="425" width="60" height="30" as="geometry" />
        </mxCell>
      </root>
    </mxGraphModel>
  </diagram>
</mxfile>
